<svg xmlns="http://www.w3.org/2000/svg" width="80" height="80" viewBox="0 0 80 80" fill="none">
<line x1="39" y1="64" x2="39" y2="22" stroke="#B98239" stroke-width="2.6" stroke-linecap="round"/>
<ellipse cx="35" cy="27" rx="4" ry="8" fill="#D8B05B" transform="rotate(-18 35 27)"/>
<line x1="35" y1="22" x2="27" y2="10" stroke="#D8B05B" stroke-width="1.4" stroke-linecap="round"/>
<ellipse cx="43" cy="28" rx="4" ry="8" fill="#D8B05B" transform="rotate(18 43 28)"/>
<line x1="43" y1="23" x2="51" y2="11" stroke="#D8B05B" stroke-width="1.4" stroke-linecap="round"/>
<ellipse cx="34" cy="35" rx="4" ry="8" fill="#D8B05B" transform="rotate(-18 34 35)"/>
<line x1="34" y1="30" x2="26" y2="18" stroke="#D8B05B" stroke-width="1.4" stroke-linecap="round"/>
<ellipse cx="44" cy="36" rx="4" ry="8" fill="#D8B05B" transform="rotate(18 44 36)"/>
<line x1="44" y1="31" x2="52" y2="19" stroke="#D8B05B" stroke-width="1.4" stroke-linecap="round"/>
<ellipse cx="35" cy="44" rx="4" ry="8" fill="#D8B05B" transform="rotate(-18 35 44)"/>
<line x1="35" y1="39" x2="27" y2="27" stroke="#D8B05B" stroke-width="1.4" stroke-linecap="round"/>
<ellipse cx="43" cy="45" rx="4" ry="8" fill="#D8B05B" transform="rotate(18 43 45)"/>
<line x1="43" y1="40" x2="51" y2="28" stroke="#D8B05B" stroke-width="1.4" stroke-linecap="round"/>
</svg>
