<svg xmlns="http://www.w3.org/2000/svg" width="80" height="80" viewBox="0 0 80 80" fill="none">
<path d="M38 26 C51 28 57 35 53 45 C48 58 35 66 27 62 C20 58 26 45 31 36 C34 31 36 28 38 26Z" fill="#FF8D2A"/>
<path d="M31 45 C39 47 46 47 52 44" fill="none" stroke="#E9771F" stroke-width="2" stroke-linecap="round" stroke-linejoin="round"/>
<path d="M28 54 C35 56 42 55 48 52" fill="none" stroke="#E9771F" stroke-width="2" stroke-linecap="round" stroke-linejoin="round"/>
<line x1="40" y1="27" x2="40" y2="16" stroke="#62C23C" stroke-width="4" stroke-linecap="round"/>
<ellipse cx="34" cy="18" rx="7" ry="4" fill="#6ECD44" transform="rotate(-45 34 18)"/>
<ellipse cx="46" cy="18" rx="7" ry="4" fill="#58B93A" transform="rotate(42 46 18)"/>
</svg>
