<svg xmlns="http://www.w3.org/2000/svg" width="80" height="80" viewBox="0 0 80 80" fill="none">
<path d="M34 17 C51 21 57 39 48 59 C43 65 29 58 27 45 C24 32 27 21 34 17Z" fill="#FFD24A"/>
<path d="M25 54 C24 36 27 25 38 18 C34 35 34 51 25 64Z" fill="#66BD50"/>
<path d="M55 55 C55 39 51 28 41 18 C45 39 45 54 55 64Z" fill="#5CB848"/>
<circle cx="35" cy="28" r="2.2" fill="#FFE476"/>
<circle cx="42" cy="28" r="2.2" fill="#FFE476"/>
<circle cx="49" cy="28" r="2.2" fill="#FFE476"/>
<circle cx="35" cy="36" r="2.2" fill="#FFE476"/>
<circle cx="42" cy="36" r="2.2" fill="#FFE476"/>
<circle cx="49" cy="36" r="2.2" fill="#FFE476"/>
<circle cx="35" cy="44" r="2.2" fill="#FFE476"/>
<circle cx="42" cy="44" r="2.2" fill="#FFE476"/>
<circle cx="49" cy="44" r="2.2" fill="#FFE476"/>
<circle cx="35" cy="52" r="2.2" fill="#FFE476"/>
<circle cx="42" cy="52" r="2.2" fill="#FFE476"/>
<circle cx="49" cy="52" r="2.2" fill="#FFE476"/>
</svg>
