<svg xmlns="http://www.w3.org/2000/svg" width="80" height="80" viewBox="0 0 80 80" fill="none">
<path d="M40 18 C53 23 60 35 55 50 C50 64 35 68 25 56 C16 45 22 29 40 18Z" fill="#54B84A"/>
<path d="M40 21 C39 35 38 51 33 63" fill="none" stroke="#CFEF95" stroke-width="3" stroke-linecap="round" stroke-linejoin="round"/>
<path d="M39 37 C33 33 28 31 23 29" fill="none" stroke="#CFEF95" stroke-width="2" stroke-linecap="round" stroke-linejoin="round"/>
<path d="M38 43 C31 44 25 45 20 49" fill="none" stroke="#CFEF95" stroke-width="2" stroke-linecap="round" stroke-linejoin="round"/>
<path d="M40 36 C47 32 52 29 56 26" fill="none" stroke="#CFEF95" stroke-width="2" stroke-linecap="round" stroke-linejoin="round"/>
<path d="M38 46 C45 48 50 51 54 56" fill="none" stroke="#CFEF95" stroke-width="2" stroke-linecap="round" stroke-linejoin="round"/>
</svg>
