<svg xmlns="http://www.w3.org/2000/svg" width="80" height="80" viewBox="0 0 80 80" fill="none">
<path d="M37 22 C49 29 50 45 40 57 C29 45 30 29 37 22Z" fill="#A9C956"/>
<path d="M43 22 C55 29 56 45 46 57 C35 45 36 29 43 22Z" fill="#93B947" opacity=".9"/>
<ellipse cx="37" cy="33" rx="2.2" ry="4" fill="#F1E7B2" transform="rotate(20 37 33)"/>
<ellipse cx="41" cy="39" rx="2.2" ry="4" fill="#F1E7B2" transform="rotate(20 41 39)"/>
<ellipse cx="38" cy="47" rx="2.2" ry="4" fill="#F1E7B2" transform="rotate(20 38 47)"/>
<ellipse cx="47" cy="34" rx="2.2" ry="4" fill="#F1E7B2" transform="rotate(20 47 34)"/>
<ellipse cx="49" cy="43" rx="2.2" ry="4" fill="#F1E7B2" transform="rotate(20 49 43)"/>
<line x1="40" y1="58" x2="40" y2="65" stroke="#86A43C" stroke-width="3" stroke-linecap="round"/>
</svg>
