<svg xmlns="http://www.w3.org/2000/svg" width="80" height="80" viewBox="0 0 80 80" fill="none">
<path d="M40 24 C57 26 62 42 55 56 C50 67 32 67 25 56 C18 43 24 26 40 24Z" fill="#F70738"/>
<path d="M29 26 L34 16 L40 25 L46 16 L51 27Z" fill="#6AD843"/>
<ellipse cx="33" cy="39" rx="1.8" ry="3" fill="#FFD267" transform="rotate(20 33 39)"/>
<ellipse cx="44" cy="37" rx="1.8" ry="3" fill="#FFD267" transform="rotate(20 44 37)"/>
<ellipse cx="38" cy="47" rx="1.8" ry="3" fill="#FFD267" transform="rotate(20 38 47)"/>
<ellipse cx="51" cy="47" rx="1.8" ry="3" fill="#FFD267" transform="rotate(20 51 47)"/>
<ellipse cx="30" cy="51" rx="1.8" ry="3" fill="#FFD267" transform="rotate(20 30 51)"/>
<ellipse cx="45" cy="57" rx="1.8" ry="3" fill="#FFD267" transform="rotate(20 45 57)"/>
</svg>
